<svg xmlns="http://www.w3.org/2000/svg" viewBox="0 0 64 64" width="64" height="64"><rect width="64" height="64" rx="14" fill="#0a0c10"/><rect x="38.00" y="7.25" width="7" height="7" rx="1.8" fill="#9fb0ff"/><rect x="46.50" y="7.25" width="7" height="7" rx="1.8" fill="#9fb0ff"/><rect x="29.50" y="15.75" width="7" height="7" rx="1.8" fill="#9fb0ff"/><rect x="38.00" y="15.75" width="7" height="7" rx="1.8" fill="#9fb0ff"/><rect x="21.00" y="24.25" width="7" height="7" rx="1.8" fill="#9fb0ff"/><rect x="29.50" y="24.25" width="7" height="7" rx="1.8" fill="#9fb0ff"/><rect x="21.00" y="32.75" width="7" height="7" rx="1.8" fill="#9fb0ff"/><rect x="29.50" y="32.75" width="7" height="7" rx="1.8" fill="#9fb0ff"/><rect x="29.50" y="41.25" width="7" height="7" rx="1.8" fill="#9fb0ff"/><rect x="38.00" y="41.25" width="7" height="7" rx="1.8" fill="#9fb0ff"/><rect x="38.00" y="49.75" width="7" height="7" rx="1.8" fill="#9fb0ff"/><rect x="46.50" y="49.75" width="7" height="7" rx="1.8" fill="#9fb0ff"/></svg>